<svg xmlns="http://www.w3.org/2000/svg" width="278" height="269" fill="none" viewBox="0 0 278 269"><rect width="251.14" height="262.556" y="6.044" fill="#fff" rx="20"/><g clip-path="url(#clip0_1721_369)"><rect width="257.855" height="248.454" x="20.145" fill="#8612FA" rx="20"/><path fill="#fff" d="M105.8 265H133.7V216.4H160.88C188.24 216.4 208.4 201.28 208.4 173.74C208.4 145.66 188.6 130.9 160.88 130.9H105.8V265ZM133.7 192.1V155.2H161.06C172.76 155.2 180.5 162.58 180.5 173.74C180.5 184.72 172.76 192.1 161.06 192.1H133.7ZM223.749 265H251.649V130.9H223.749V265Z"/><path fill="#fff" d="M86.9022 53.1526L52.7466 66.376L52.7464 58.5616L82.8497 45.9397L86.9022 53.1526Z"/><path fill="#fff" d="M86.9025 53.1531L72.4298 47.7435L52.7478 41.1327L52.7485 32.7161L86.9025 44.1372L86.9025 53.1531Z"/><path fill="#fff" d="M117.584 69.381V76.5938H85.1656V69.381H117.584Z"/></g><defs><clipPath id="clip0_1721_369"><rect width="257.855" height="248.454" x="20.145" fill="#fff" rx="20"/></clipPath></defs></svg>